<?xml version="1.0" encoding="UTF-8" standalone="no"?>
<!-- Generator: Adobe Illustrator 19.1.0, SVG Export Plug-In . SVG Version: 6.00 Build 0)  -->

<svg
   xmlns:dc="http://purl.org/dc/elements/1.1/"
   xmlns:cc="http://creativecommons.org/ns#"
   xmlns:rdf="http://www.w3.org/1999/02/22-rdf-syntax-ns#"
   xmlns:svg="http://www.w3.org/2000/svg"
   xmlns="http://www.w3.org/2000/svg"
   xmlns:sodipodi="http://sodipodi.sourceforge.net/DTD/sodipodi-0.dtd"
   xmlns:inkscape="http://www.inkscape.org/namespaces/inkscape"
   version="1.1"
   id="Layer_1"
   x="0px"
   y="0px"
   viewBox="0 0 500 500"
   enable-background="new 0 0 330 280.5"
   xml:space="preserve"
   inkscape:version="0.91 r13725"
   sodipodi:docname="digs-logo.svg"
   width="500"
   height="500"
   inkscape:export-filename="/Users/boneskull/Desktop/digs-logo-128.png"
   inkscape:export-xdpi="23.040001"
   inkscape:export-ydpi="23.040001"><title
     id="title4157">Digs Logo</title><metadata
     id="metadata25"><rdf:RDF><cc:Work
         rdf:about=""><dc:format>image/svg+xml</dc:format><dc:type
           rdf:resource="http://purl.org/dc/dcmitype/StillImage" /><dc:title>Digs Logo</dc:title><cc:license
           rdf:resource="http://creativecommons.org/licenses/by-nc/3.0/" /><dc:date>08-15-2015</dc:date><dc:creator><cc:Agent><dc:title>Dick DeLeon</dc:title></cc:Agent></dc:creator><dc:rights><cc:Agent><dc:title>CC BY-NC 3.0</dc:title></cc:Agent></dc:rights><dc:contributor><cc:Agent><dc:title>Christopher Hiller</dc:title></cc:Agent></dc:contributor></cc:Work><cc:License
         rdf:about="http://creativecommons.org/licenses/by-nc/3.0/"><cc:permits
           rdf:resource="http://creativecommons.org/ns#Reproduction" /><cc:permits
           rdf:resource="http://creativecommons.org/ns#Distribution" /><cc:requires
           rdf:resource="http://creativecommons.org/ns#Notice" /><cc:requires
           rdf:resource="http://creativecommons.org/ns#Attribution" /><cc:prohibits
           rdf:resource="http://creativecommons.org/ns#CommercialUse" /><cc:permits
           rdf:resource="http://creativecommons.org/ns#DerivativeWorks" /></cc:License></rdf:RDF></metadata><defs
     id="defs23" /><sodipodi:namedview
     pagecolor="#ffffff"
     bordercolor="#666666"
     borderopacity="1"
     objecttolerance="10000"
     gridtolerance="10000"
     guidetolerance="10000"
     inkscape:pageopacity="0"
     inkscape:pageshadow="2"
     inkscape:window-width="1920"
     inkscape:window-height="1031"
     id="namedview21"
     showgrid="false"
     fit-margin-top="10"
     fit-margin-left="10"
     fit-margin-right="10"
     fit-margin-bottom="10"
     inkscape:showpageshadow="false"
     showborder="true"
     borderlayer="false"
     inkscape:zoom="0.84135472"
     inkscape:cx="-135.6875"
     inkscape:cy="182.9443"
     inkscape:window-x="1360"
     inkscape:window-y="23"
     inkscape:window-maximized="0"
     inkscape:current-layer="Layer_1" /><g
     display="none"
     id="g3"
     style="display:none"
     transform="translate(85.000006,176.80568)"><path
       display="inline"
       d="m 146.5,231.9 6.3,-11.1 c -6.7,-3.6 -11.8,-9.9 -14,-17.3 -0.4,-1.2 -0.6,-2.5 -0.8,-3.8 -0.2,-1.3 -0.3,-2.7 -0.3,-4 l 0,0 0,0 c 0,-1 0.1,-2 0.1,-2.9 0.1,-1.4 0.4,-2.9 0.8,-4.2 0.1,-0.5 0.2,-0.9 0.4,-1.4 0.6,-1.8 1.3,-3.5 2.2,-5.1 0.9,-1.6 1.9,-3.1 3.1,-4.6 5.2,-6.4 13.2,-10.4 22.1,-10.4 0,0 0,0 0,0 0,0 0,0 0,0 15.8,0 28.6,12.8 28.6,28.6 0,10.9 -6.1,20.4 -15.1,25.2 l 14.7,26.1 30.2,0 -11.7,-14.4 c 3.4,-5.3 5.9,-11.3 7.3,-17.7 l 19,-2 0,-20.2 -19,-2 c -1.4,-6.4 -3.9,-12.3 -7.3,-17.7 l 12,-14.9 -14.3,-14.3 -14.9,12 c -5.3,-3.4 -11.3,-5.9 -17.7,-7.3 l -2,-19 -20.2,0 -2,19 c -6.4,1.4 -12.3,3.9 -17.7,7.3 l -14.9,-12 -14.3,14.3 12,14.9 c -3.4,5.3 -5.9,11.3 -7.3,17.7 l -19,2 0,20.2 19,2 c 1.4,6.4 3.9,12.3 7.3,17.7 l -11.7,14.4 30.2,0 8.9,-15.1 z"
       id="path5"
       inkscape:connector-curvature="0"
       style="display:inline;fill:#2c8fe3" /></g><g
     id="g7"
     transform="matrix(1.594309,0,0,1.594309,-8.5448609,34.449423)"><rect
       x="149.3"
       y="246"
       width="0"
       height="0.30000001"
       id="rect9"
       style="fill:#303030" /><path
       d="m 304.7,138.5 -124,-120 c -4.9,-4.7 -11.3,-7.3 -18.1,-7.3 -6.7,0 -13.1,2.6 -18,7.2 l -19.7,18.9 c -4.1,-3.5 -9.3,-5.6 -15.1,-5.6 l -18.4,0 c -12.8,0 -23.2,10.4 -23.2,23.2 l 0,36.9 -48.6,46.6 c -10.3,9.9 -10.7,26.4 -0.7,36.8 4.9,5.1 11.7,8 18.8,8 6.7,0 13.1,-2.6 18,-7.2 l 2,-1.9 0,55.6 c 0,16.3 13.2,29.5 29.5,29.5 l 44.3,0 10.9,0 6.9,-13 12.2,-21.7 c 1.2,-2.1 1.5,-4.6 0.8,-6.9 -0.7,-2.3 -2.3,-4.3 -4.4,-5.4 -6.4,-3.4 -10.3,-10.1 -10.3,-17.3 0,-10.8 8.8,-19.6 19.6,-19.6 0,0 0,0 0,0 0,0 0,0 0,0 10.8,0 19.6,8.8 19.6,19.6 0,7.2 -4,13.9 -10.3,17.3 -4.3,2.3 -6,7.7 -3.7,12.1 l 12.4,21.9 -0.2,0 0,0 2.5,4.4 c 0.2,0.4 0.5,0.8 0.8,1.2 l 4.2,7.4 10.3,0 35.4,0 c 16.3,0 29.5,-13.2 29.5,-29.5 l 0,-54.7 0.9,0.9 c 4.9,4.7 11.3,7.3 18.1,7.3 7.1,0 13.7,-2.8 18.7,-7.9 4.8,-5 7.4,-11.6 7.3,-18.5 -0.2,-7 -3,-13.5 -8,-18.3 z"
       id="path11"
       inkscape:connector-curvature="0"
       style="fill:#303030" /></g><g
     id="g13"
     transform="matrix(1.594309,0,0,1.594309,-8.5448609,34.449423)"><g
       id="g15"><path
         d="m 147.3,231.1 6.3,-11.1 c -6.7,-3.6 -11.8,-9.9 -14,-17.3 -0.4,-1.2 -0.6,-2.5 -0.8,-3.8 -0.2,-1.3 -0.3,-2.7 -0.3,-4 l 0,0 0,0 c 0,-1 0.1,-2 0.1,-2.9 0.1,-1.4 0.4,-2.9 0.8,-4.2 0.1,-0.5 0.2,-0.9 0.4,-1.4 0.6,-1.8 1.3,-3.5 2.2,-5.1 0.9,-1.6 1.9,-3.1 3.1,-4.6 5.2,-6.4 13.2,-10.4 22.1,-10.4 0,0 0,0 0,0 0,0 0,0 0,0 15.8,0 28.6,12.8 28.6,28.6 0,10.9 -6.1,20.4 -15.1,25.2 l 14.7,26.1 30.2,0 -11.7,-14.4 c 3.4,-5.3 5.9,-11.3 7.3,-17.7 l 19,-2 0,-20.2 -19,-2 c -1.4,-6.4 -3.9,-12.3 -7.3,-17.7 l 12,-14.9 -14.3,-14.3 -14.9,12 c -5.3,-3.4 -11.3,-5.9 -17.7,-7.3 l -2,-19 -20,0 -2,19 c -6.4,1.4 -12.3,3.9 -17.7,7.3 l -14.9,-12 -14.3,14.3 12,14.9 c -3.4,5.3 -5.9,11.3 -7.3,17.7 l -19,2 0,20.2 19,2 c 1.4,6.4 3.9,12.3 7.3,17.7 l -11.7,14.4 30.2,0 8.7,-15.1 z"
         id="path17"
         inkscape:connector-curvature="0"
         style="fill:#2c8fe3" /></g><path
       d="m 70.7,229.6 c 0,9.1 7.4,16.5 16.5,16.5 l 12.4,0 c 0,-2 0.7,-4 2,-5.7 l 7.8,-9.6 c -1.4,-2.7 -2.5,-5.5 -3.5,-8.4 L 93,221 c -4.6,-0.5 -8.1,-4.3 -8.1,-9 l 0,-20.2 c 0,-4.6 3.5,-8.5 8.1,-9 l 12.9,-1.4 c 1,-2.9 2.1,-5.7 3.5,-8.4 l -8.2,-10.1 c -2.9,-3.6 -2.6,-8.8 0.6,-12 l 14.3,-14.3 c 1.7,-1.7 4.1,-2.6 6.4,-2.6 2,0 4,0.7 5.7,2 l 10.1,8.2 c 2.7,-1.4 5.5,-2.5 8.4,-3.5 l 1.4,-12.9 c 0.5,-4.6 4.3,-8.1 9,-8.1 l 20.2,0 c 4.6,0 8.5,3.5 9,8.1 l 1.4,12.9 c 2.9,1 5.7,2.1 8.4,3.5 l 10.1,-8.2 c 1.7,-1.3 3.7,-2 5.7,-2 2.3,0 4.6,0.9 6.4,2.6 l 14.3,14.3 c 3.3,3.3 3.5,8.4 0.6,12 L 225,173 c 1.4,2.7 2.5,5.5 3.5,8.4 l 12.9,1.4 c 4.6,0.5 8.1,4.3 8.1,9 l 0,20.2 c 0,4.6 -3.5,8.5 -8.1,9 l -12.9,1.4 c -1,2.9 -2.1,5.7 -3.5,8.4 l 7.8,9.6 c 1.3,1.6 2,3.6 2,5.7 l 3.6,0 c 9.1,0 16.5,-7.4 16.5,-16.5 l 0,-85.3 0,0 0,0 23,22.2 c 1,0.9 2,1.7 3.2,2.3 0.1,0 0.1,0 0.2,0.1 0.3,0.2 0.7,0.3 1,0.4 0.1,0 0.2,0.1 0.3,0.1 0.3,0.1 0.6,0.2 0.9,0.3 0.1,0 0.3,0.1 0.4,0.1 0.3,0.1 0.5,0.1 0.8,0.2 0.2,0 0.3,0 0.5,0.1 0.2,0 0.5,0.1 0.7,0.1 0.2,0 0.4,0 0.5,0 0.2,0 0.4,0 0.7,0 0.2,0 0.5,0 0.7,0 0.2,0 0.4,0 0.6,0 0.3,0 0.5,-0.1 0.7,-0.1 0.2,0 0.3,0 0.5,-0.1 0.3,-0.1 0.5,-0.1 0.8,-0.2 0.1,0 0.3,-0.1 0.4,-0.1 0.3,-0.1 0.6,-0.2 0.9,-0.3 0.1,0 0.2,-0.1 0.3,-0.1 0.3,-0.1 0.7,-0.3 1,-0.5 0,0 0.1,0 0.1,-0.1 1.1,-0.6 2.2,-1.4 3.2,-2.4 5,-5.2 4.9,-13.4 -0.3,-18.4 L 172,27.9 c -1.9,-1.8 -4.2,-3 -6.6,-3.4 0,0 0,0 0,0 -0.4,-0.1 -0.8,-0.1 -1.2,-0.2 -0.1,0 -0.3,0 -0.4,0 -0.3,0 -0.5,0 -0.8,0 -0.3,0 -0.5,0 -0.8,0 -0.1,0 -0.3,0 -0.4,0 -2.8,0.3 -5.6,1.4 -7.8,3.6 l -34,32.2 0,0 0,0 0,-5.2 c 0,-5.6 -4.5,-10.2 -10.2,-10.2 l -18.4,0 c -5.6,0 -10.2,4.5 -10.2,10.2 l 0,41.7 c 0,0.2 0,0.5 0,0.7 l -52.6,50.5 c -5.2,5 -5.3,13.2 -0.4,18.4 2.6,2.7 6,4 9.4,4 3.2,0 6.5,-1.2 9,-3.6 l 24,-23 0,0 0,0 0,86 z"
       id="path19"
       inkscape:connector-curvature="0"
       style="fill:#fbce00" /></g></svg>